<svg width="101" height="100" viewBox="0 0 101 100" fill="none" xmlns="http://www.w3.org/2000/svg">
    <g clip-path="url(#clip0-who)">
        <path d="M82.5518 96.3989C82.5518 97.1979 81.9018 97.8477 81.1106 97.8477C80.3194 97.8477 79.6694 97.1979 79.6694 96.3989C79.6694 89.0392 76.9468 83.5189 71.8282 79.8591C66.7374 76.2192 59.3375 74.463 50.0518 74.463C40.766 74.463 33.3661 76.2192 28.2753 79.8591C23.1567 83.5189 20.4341 89.0392 20.4341 96.3989C20.4341 97.1979 19.7841 97.8477 18.9929 97.8477C18.2017 97.8477 17.5518 97.1979 17.5518 96.3989C17.5518 88.0241 20.6513 81.8486 26.2135 77.7491C31.7996 73.632 39.9286 71.5656 50.0518 71.5656C60.1749 71.5656 68.3039 73.632 73.89 77.7491C79.4522 81.8486 82.5518 88.0241 82.5518 96.3989ZM50.0518 66.6682C45.2108 66.6682 40.9797 63.9281 37.9387 59.6671C34.8974 55.4055 33.0812 49.6625 33.0812 43.7836C33.0812 32.41 40.2031 22.8477 50.0518 22.8477C59.9005 22.8477 67.0223 32.41 67.0223 43.7836C67.0223 49.6625 65.2061 55.4055 62.1648 59.6671C59.1238 63.9281 54.8927 66.6682 50.0518 66.6682ZM50.0518 63.7707C54.0283 63.7707 57.5605 61.2753 60.0744 57.5793C62.5926 53.8769 64.14 48.9061 64.14 43.7836C64.14 34.0436 58.2258 25.7451 50.0518 25.7451C41.8777 25.7451 35.9635 34.0436 35.9635 43.7836C35.9635 48.9061 37.5109 53.8769 40.0291 57.5793C42.543 61.2753 46.0752 63.7707 50.0518 63.7707Z" fill="url(#paint-who-0_linear)" stroke="white"></path>
        <path d="M36.0868 35.2674L36.0784 27.0145L42.8374 20.681L49.5965 14.3475L63.0879 26.9869L63.0963 35.2398L49.5969 40.5055L36.0868 35.2674Z" fill="white"></path>
        <path d="M49.5277 12.6311C49.5032 12.6422 49.4787 12.6534 49.4564 12.6668L25.8024 21.8141C25.5909 21.9035 25.453 22.1107 25.4533 22.3402C25.4535 22.5696 25.5918 22.7766 25.8035 22.8655L34.6805 26.2776L34.6805 26.3311L34.6901 35.704C34.6948 35.9312 34.8353 36.136 35.047 36.2204L49.4684 42.2281C49.6065 42.2837 49.758 42.2835 49.896 42.2277L64.3228 36.1905C64.5276 36.0989 64.6588 35.8961 64.6608 35.6734L64.6512 26.3004L64.6512 26.2648L68.7123 24.6926C69.0084 24.5787 69.1551 24.2489 69.0412 23.9528C68.9273 23.6566 68.5975 23.51 68.3013 23.6239L49.67 30.8417L27.5837 22.3466L49.6702 13.7887L72.7371 22.6745L72.7513 36.6091C71.1167 36.8825 69.8664 38.2914 69.8681 39.9797C69.8701 41.8596 71.4264 43.3994 73.3285 43.3974C75.2306 43.3955 76.7837 41.8526 76.7818 39.9727C76.7801 38.2844 75.5269 36.8779 73.8917 36.6079L73.8771 22.2993C73.8791 22.0654 73.7386 21.8517 73.5202 21.7651L49.8652 12.6661C49.7583 12.6194 49.6412 12.6087 49.5277 12.6311ZM35.8219 26.7222L49.4767 31.9648C49.6082 32.0159 49.7552 32.0157 49.8865 31.9644L63.5124 26.6939L63.5212 35.2823L49.682 41.0874L35.8311 35.3105L35.8219 26.7222ZM73.3238 37.6779C74.6068 37.6766 75.6234 38.7068 75.6247 39.9742C75.626 41.2415 74.6114 42.256 73.3285 42.2573C72.0455 42.2586 71.011 41.2463 71.0097 39.9789C71.0084 38.7115 72.0409 37.6792 73.3238 37.6779Z" fill="url(#paint-who-1_linear)" stroke="url(#paint-who-2_linear)" stroke-width="0.7"></path>
    </g>
    <defs>
        <linearGradient id="paint-who-0_linear" x1="17.0518" y1="22.3477" x2="84.7978" y2="22.3477" gradientUnits="userSpaceOnUse">
            <stop stop-color="#6050F5"></stop>
            <stop offset="1" stop-color="#78B4F8"></stop>
        </linearGradient>
        <linearGradient id="paint-who-1_linear" x1="25.4434" y1="12.6445" x2="78.1113" y2="12.5907" gradientUnits="userSpaceOnUse">
            <stop stop-color="#6050F5"></stop>
            <stop offset="1" stop-color="#78B4F8"></stop>
        </linearGradient>
        <linearGradient id="paint-who-2_linear" x1="25.4434" y1="12.6445" x2="78.1113" y2="12.5907" gradientUnits="userSpaceOnUse">
            <stop stop-color="#6050F5"></stop>
            <stop offset="1" stop-color="#78B4F8"></stop>
        </linearGradient>
        <clipPath id="clip0-who">
            <rect x="0.393555" width="100" height="100" fill="white"></rect>
        </clipPath>
    </defs>
</svg>