<svg width="74" height="74" viewBox="0 0 74 74" fill="none" xmlns="http://www.w3.org/2000/svg">
    <rect x="18.0127" y="1.1748" width="54.0317" height="52.8571" rx="4" fill="white"></rect>
    <path d="M23.6425 0.1H66.4142C68.1913 0.1 69.8974 0.807139 71.1546 2.06426C72.4117 3.32139 73.1188 5.02744 73.1188 6.8046V49.5764C73.1188 53.2804 70.1183 56.281 66.4142 56.281H23.6425C19.9385 56.281 16.9379 53.2804 16.9379 49.5764V6.8046C16.9379 3.10058 19.9385 0.1 23.6425 0.1ZM69.9215 53.0836C70.8515 52.1535 71.3747 50.8901 71.3747 49.5764V6.8046C71.3747 5.49074 70.8516 4.22741 69.9215 3.29737C68.9914 2.36733 67.728 1.84417 66.4142 1.84417H23.6425C20.9027 1.84417 18.6821 4.06476 18.6821 6.8046V49.5764C18.6821 52.3162 20.9027 54.5368 23.6425 54.5368H66.4142C67.7281 54.5368 68.9914 54.0137 69.9215 53.0836Z" fill="url(#paint-main0_linear)" stroke="white" stroke-width="0.2"></path>
    <rect x="0.393555" y="7.04785" width="68.127" height="66.9524" rx="6" fill="white"></rect>
    <path d="M8.61578 5.97305H60.2983C62.4511 5.97305 64.518 6.8297 66.041 8.35263C67.5639 9.87556 68.4205 11.9423 68.4205 14.0953V65.7778C68.4205 70.265 64.7855 73.9 60.2983 73.9H8.61578C4.12858 73.9 0.493555 70.265 0.493555 65.7778V14.0953C0.493555 9.60807 4.12858 5.97305 8.61578 5.97305ZM64.5215 70.001C65.6414 68.881 66.2713 67.3598 66.2713 65.7778V14.0953C66.2713 12.5132 65.6414 10.992 64.5215 9.8721C63.4016 8.75221 61.8803 8.12225 60.2983 8.12225H8.61578C5.31665 8.12225 2.64276 10.7961 2.64276 14.0953V65.7778C2.64276 69.0769 5.31665 71.7508 8.61578 71.7508H60.2983C61.8804 71.7508 63.4016 71.1209 64.5215 70.001Z" fill="url(#paint-main1_linear)" stroke="white" stroke-width="0.2"></path>
    <path d="M55.3982 14.9689H55.3569L55.3566 14.9692C52.7281 14.9915 50.5997 17.1337 50.5997 19.7674C50.5997 21.7121 51.7713 23.4599 53.5658 24.2049L53.5659 24.2049C55.3561 24.9454 57.4224 24.5329 58.7953 23.1647L58.7955 23.1645C60.1637 21.7915 60.5761 19.7253 59.8357 17.9351L59.8357 17.935C59.0907 16.1404 57.3429 14.9689 55.3982 14.9689ZM60.3149 14.855C62.3007 16.8454 62.8932 19.8307 61.8212 22.4271C60.7446 25.0233 58.2117 26.7149 55.3982 26.7149C51.5625 26.7149 48.4506 23.6075 48.4506 19.7673C48.4506 16.9585 50.1467 14.4255 52.7431 13.3489C55.3394 12.2769 58.3246 12.8695 60.3149 14.855Z" fill="url(#paint-main2_linear)" stroke="white" stroke-width="0.2"></path>
    <path d="M28.5841 37.6553L8.18002 58.0371C7.96896 58.2848 7.66154 58.4317 7.33578 58.4454L28.5841 37.6553ZM28.5841 37.6553L42.0321 51.0717L28.5841 37.6553ZM43.6313 49.4858C44.0467 49.9056 44.0467 50.5811 43.6315 51.0009C43.4296 51.2029 43.152 51.3204 42.8672 51.3204C42.5823 51.3204 42.3047 51.2029 42.1028 51.0009L42.1027 51.0009L28.6547 37.5845L28.584 37.514L28.5134 37.5846L8.10935 57.9663L8.10912 57.9661L8.1039 57.9722C7.9113 58.1983 7.63018 58.3329 7.33156 58.3455C7.02907 58.3581 6.7401 58.2448 6.53083 58.0313L6.52942 58.0299C6.3158 57.8205 6.20263 57.5314 6.2152 57.2337L6.21521 57.2337C6.22785 56.9303 6.36257 56.6493 6.5885 56.4568L6.58871 56.457L6.59433 56.4514L28.584 34.4841L43.6311 49.4856C43.6312 49.4857 43.6312 49.4857 43.6313 49.4858Z" fill="url(#paint-main3_linear)" stroke="white" stroke-width="0.2"></path>
    <path d="M62.2884 62.684C61.8841 63.0841 61.2438 63.103 60.8172 62.7373L60.7595 62.6796L50.0687 51.9888L49.9981 51.9181L49.9273 51.9888L39.2281 62.6789C39.228 62.679 39.2279 62.6791 39.2278 62.6792C38.8031 63.0951 38.1231 63.0945 37.7036 62.6708C37.288 62.251 37.288 61.571 37.712 61.1512L37.7122 61.151L50.0067 48.9242L62.2971 61.1505C62.2972 61.1506 62.2973 61.1507 62.2974 61.1508C62.7167 61.5747 62.7131 62.2592 62.2884 62.684Z" fill="url(#paint-main4_linear)" stroke="white" stroke-width="0.2"></path>
    <defs>
        <linearGradient id="paint-main0_linear" x1="16.8379" y1="0" x2="74.7104" y2="0" gradientUnits="userSpaceOnUse">
            <stop stop-color="#6050F5"></stop>
            <stop offset="1" stop-color="#78B4F8"></stop>
        </linearGradient>
        <linearGradient id="paint-main1_linear" x1="0.393555" y1="5.87305" x2="70.3228" y2="5.87305" gradientUnits="userSpaceOnUse">
            <stop stop-color="#6050F5"></stop>
            <stop offset="1" stop-color="#78B4F8"></stop>
        </linearGradient>
        <linearGradient id="paint-main2_linear" x1="48.3506" y1="12.7217" x2="62.8214" y2="12.7217" gradientUnits="userSpaceOnUse">
            <stop stop-color="#6050F5"></stop>
            <stop offset="1" stop-color="#78B4F8"></stop>
        </linearGradient>
        <linearGradient id="paint-main3_linear" x1="6.11426" y1="34.3428" x2="45.0463" y2="34.3428" gradientUnits="userSpaceOnUse">
            <stop stop-color="#6050F5"></stop>
            <stop offset="1" stop-color="#78B4F8"></stop>
        </linearGradient>
        <linearGradient id="paint-main4_linear" x1="37.293" y1="48.7832" x2="63.3818" y2="48.7832" gradientUnits="userSpaceOnUse">
            <stop stop-color="#6050F5"></stop>
            <stop offset="1" stop-color="#78B4F8"></stop>
        </linearGradient>
    </defs>
</svg>