<svg width="7" height="12" viewBox="0 0 7 12" fill="none" xmlns="http://www.w3.org/2000/svg">
    <path d="M0.235334 11.6367C0.377834 11.7792 0.571539 11.8594 0.772674 11.8594C0.974549 11.8594 1.16825 11.7792 1.31075 11.6367L6.47705 6.47403C6.61955 6.33153 6.69971 6.13857 6.69971 5.93669C6.69971 5.73482 6.61955 5.54185 6.47705 5.39935L1.31075 0.236674C1.16974 0.0882363 0.973807 0.00287774 0.768948 0.000654739C0.564109 -0.00157112 0.366681 0.0785862 0.221958 0.224058C0.0772304 0.368785 -0.00292781 0.56621 3.62239e-05 0.771049C0.00300026 0.975888 0.088356 1.17109 0.236795 1.31211L4.86577 5.93671L0.236796 10.5613C0.0942964 10.7038 0.0133947 10.8968 0.0133948 11.0987C0.0126528 11.3005 0.0928092 11.4942 0.235315 11.6367L0.235334 11.6367Z" fill="#F2F2F2"></path>
</svg>