<svg xmlns="http://www.w3.org/2000/svg" width="89" height="80" fill="none" viewBox="0 0 89 80">
    <mask id="main-c" width="90.415" height="80.369" x="-.803" y="-.803" fill="#000" maskUnits="userSpaceOnUse">
        <path fill="#fff" d="M-.803-.803h90.415v80.369H-.803z"></path>
        <path fill-rule="evenodd" d="M10.934 51.902a.68.68 0 0 1-.295.067v.001a.645.645 0 0 1-.59-.367.668.668 0 0 1 .3-.892c.187-.092 18.985-9.458 31.453-20.342C52.1 21.376 60.724 6.96 63.44 2.164L60.49 3.433a.662.662 0 1 1-.523-1.218L64.537.247a.661.661 0 0 1 .331-.041c.12-.01.244 0 .363.062.093.052.166.119.223.202a.64.64 0 0 1 .238.388l.74 4.76a.662.662 0 0 1-.554.757c-.036.005-.072.01-.103.01a.662.662 0 0 1-.653-.56l-.482-3.092C61.942 7.515 53.183 22.2 42.672 31.374 30.075 42.371 11.127 51.81 10.934 51.902zm54.965 22.295V19.165c0-.368.3-.663.663-.663h9.283c.368 0 .663.295.663.663v55.032a.661.661 0 0 1-.663.663h-9.283a.66.66 0 0 1-.663-.663zm9.283-54.37h-7.957v53.707h7.957V19.828zM49.535 31.763a.661.661 0 0 0-.663.663v41.772c0 .368.296.663.663.663h9.283a.661.661 0 0 0 .663-.663V32.425a.661.661 0 0 0-.663-.662h-9.283zm8.62 41.772h-7.957V33.09h7.957v40.445zM31.84 45.686c0-.367.296-.663.663-.663h9.283c.368 0 .663.296.663.663v28.511a.661.661 0 0 1-.663.663h-9.283a.661.661 0 0 1-.663-.663v-28.51zm1.326 27.848h7.957V46.35h-7.957v27.185zM14.813 58.947c0-.368.295-.663.663-.663h9.283c.367 0 .663.295.663.663v15.25a.66.66 0 0 1-.663.663h-9.283a.66.66 0 0 1-.663-.663v-15.25zm1.326 14.587h7.957V59.61h-7.957v13.924zM.864 79.324h87.272a.661.661 0 0 0 .663-.662.661.661 0 0 0-.663-.663H.864a.661.661 0 0 0-.663.663c0 .367.295.663.663.663z" clip-rule="evenodd"></path>
    </mask>
    <path fill="url(#main-a)" fill-rule="evenodd" d="M10.934 51.902a.68.68 0 0 1-.295.067v.001a.645.645 0 0 1-.59-.367.668.668 0 0 1 .3-.892c.187-.092 18.985-9.458 31.453-20.342C52.1 21.376 60.724 6.96 63.44 2.164L60.49 3.433a.662.662 0 1 1-.523-1.218L64.537.247a.661.661 0 0 1 .331-.041c.12-.01.244 0 .363.062.093.052.166.119.223.202a.64.64 0 0 1 .238.388l.74 4.76a.662.662 0 0 1-.554.757c-.036.005-.072.01-.103.01a.662.662 0 0 1-.653-.56l-.482-3.092C61.942 7.515 53.183 22.2 42.672 31.374 30.075 42.371 11.127 51.81 10.934 51.902zm54.965 22.295V19.165c0-.368.3-.663.663-.663h9.283c.368 0 .663.295.663.663v55.032a.661.661 0 0 1-.663.663h-9.283a.66.66 0 0 1-.663-.663zm9.283-54.37h-7.957v53.707h7.957V19.828zM49.535 31.763a.661.661 0 0 0-.663.663v41.772c0 .368.296.663.663.663h9.283a.661.661 0 0 0 .663-.663V32.425a.661.661 0 0 0-.663-.662h-9.283zm8.62 41.772h-7.957V33.09h7.957v40.445zM31.84 45.686c0-.367.296-.663.663-.663h9.283c.368 0 .663.296.663.663v28.511a.661.661 0 0 1-.663.663h-9.283a.661.661 0 0 1-.663-.663v-28.51zm1.326 27.848h7.957V46.35h-7.957v27.185zM14.813 58.947c0-.368.295-.663.663-.663h9.283c.367 0 .663.295.663.663v15.25a.66.66 0 0 1-.663.663h-9.283a.66.66 0 0 1-.663-.663v-15.25zm1.326 14.587h7.957V59.61h-7.957v13.924zM.864 79.324h87.272a.661.661 0 0 0 .663-.662.661.661 0 0 0-.663-.663H.864a.661.661 0 0 0-.663.663c0 .367.295.663.663.663z" clip-rule="evenodd"></path>
    <path fill="url(#main-b)" d="M10.639 51.97v-.202h-.262l.068.253.194-.052zm.295-.068l.086.181h.002l-.088-.181zm-.295.068v.201h.262l-.068-.253-.194.052zm-.59-.367l.182-.086-.002-.002-.18.087zm.3-.892l.089.18-.089-.18zM41.802 30.37l.132.152-.132-.152zM63.44 2.164l.175.099.294-.52-.549.236.08.185zM60.49 3.433l-.08-.185.08.185zm-.87-.347l-.185.08.185-.08zm.347-.87l.08.184-.08-.185zM64.537.246l-.08-.185.08.185zm.331-.041l-.018.2.018.001.018-.001-.018-.2zm.363.062l.098-.176-.005-.002-.093.178zm.223.202l-.166.114.016.023.022.018.128-.155zm.238.388l.198-.03V.825l-.198.032zm.74 4.76l-.198.032.199-.031zm-.554.757l.029.199h.002l-.03-.2zm-.756-.55l-.198.032.198-.031zm-.482-3.092l.199-.03-.09-.572-.284.504.175.098zM42.672 31.374l-.132-.151.133.151zm24.553-11.546v-.201h-.2v.2h.2zm7.957 0h.2v-.201h-.2v.2zm-7.957 53.706h-.2v.201h.2v-.2zm7.957 0v.201h.2v-.2h-.2zm-24.984 0h-.2v.201h.2v-.2zm7.957 0v.201h.2v-.2h-.2zM50.198 33.09v-.201h-.2v.2h.2zm7.957 0h.2v-.201h-.2v.2zM41.123 73.534v.201h.2v-.2h-.2zm-7.957 0h-.2v.201h.2v-.2zm7.957-27.185h.2v-.2h-.2v.2zm-7.957 0v-.2h-.2v.2h.2zm-9.07 27.185v.201h.2v-.2h-.2zm-7.957 0h-.2v.201h.2v-.2zm7.957-13.924h.2v-.2h-.2v.2zm-7.957 0v-.2h-.2v.2h.2zm-5.5-7.44a.881.881 0 0 0 .381-.087l-.172-.363a.48.48 0 0 1-.21.048v.402zm.194-.252l-.388.103v.001l.388-.104zm-.967-.23c.145.309.453.483.773.483v-.402a.444.444 0 0 1-.408-.252l-.365.17zm.394-1.157c-.427.21-.6.73-.392 1.16l.361-.176a.467.467 0 0 1 .209-.623l-.178-.36zm31.41-20.313c-12.446 10.864-31.223 20.22-31.41 20.314l.178.36c.186-.093 19.006-9.469 31.496-20.371l-.264-.303zM63.264 2.065C60.55 6.86 51.939 21.249 41.67 30.218l.264.303C52.26 21.503 60.9 7.06 63.614 2.263l-.35-.198zM60.57 3.617l2.947-1.269-.159-.369-2.947 1.27.159.368zm-1.135-.452a.862.862 0 0 0 1.135.452l-.16-.369a.46.46 0 0 1-.606-.242l-.369.16zm.453-1.134a.862.862 0 0 0-.453 1.134l.37-.159a.46.46 0 0 1 .242-.606l-.16-.37zM64.457.063L59.89 2.03l.158.369 4.57-1.968-.16-.37zm.43-.057a.86.86 0 0 0-.43.056l.159.37a.464.464 0 0 1 .234-.026l.036-.4zm.437.084a.844.844 0 0 0-.473-.085l.035.4a.445.445 0 0 1 .252.04l.186-.355zm.295.266a.846.846 0 0 0-.29-.264l-.196.351a.443.443 0 0 1 .155.14l.331-.227zm.271.47a.84.84 0 0 0-.308-.511l-.256.31a.44.44 0 0 1 .168.265l.396-.064zm.741 4.762l-.74-4.76-.398.061.741 4.76.397-.061zm-.722.985a.863.863 0 0 0 .722-.986l-.397.063a.46.46 0 0 1-.387.526l.063.397zm-.134.013c.048 0 .1-.008.132-.012l-.057-.398a.63.63 0 0 1-.075.008v.402zm-.851-.729a.863.863 0 0 0 .85.73v-.403a.46.46 0 0 1-.454-.39l-.396.063zm-.482-3.093l.482 3.093.397-.062-.482-3.093-.397.062zM42.805 31.526c10.538-9.199 19.311-23.911 22.01-28.694l-.35-.197c-2.698 4.78-11.443 19.438-21.925 28.588l.265.303zM11.022 52.082c.193-.094 19.163-9.542 31.783-20.557l-.265-.303C29.964 42.2 11.037 51.629 10.846 51.72l.176.362zm54.676-32.918v55.032h.402V19.165h-.402zm.864-.864a.865.865 0 0 0-.864.864h.402c0-.256.21-.462.462-.462V18.3zm9.283 0h-9.283v.402h9.283V18.3zm.864.864a.862.862 0 0 0-.864-.864v.402a.46.46 0 0 1 .462.462h.402zm0 55.032V19.165h-.402v55.032h.402zm-.864.864a.862.862 0 0 0 .864-.864h-.402a.46.46 0 0 1-.462.462v.402zm-9.283 0h9.283v-.402h-9.283v.402zm-.864-.864c0 .479.385.864.864.864v-.402a.46.46 0 0 1-.462-.462h-.402zm1.527-54.168h7.957v-.402h-7.957v.402zm.201 53.505V19.828h-.402v53.706h.402zm7.756-.2h-7.957v.401h7.957v-.402zm-.201-53.506v53.706h.402V19.828h-.402zM49.073 32.426a.46.46 0 0 1 .462-.463v-.401a.862.862 0 0 0-.864.863h.402zm0 41.771V32.425h-.402v41.772h.402zm.462.462a.46.46 0 0 1-.462-.462h-.402c0 .479.386.864.864.864v-.402zm9.283 0h-9.283v.402h9.283v-.402zm.462-.462a.46.46 0 0 1-.462.462v.402a.862.862 0 0 0 .864-.864h-.402zm0-41.772v41.772h.402V32.425h-.402zm-.462-.462a.46.46 0 0 1 .462.462h.402a.862.862 0 0 0-.864-.863v.401zm-9.283 0h9.283v-.401h-9.283v.401zm.663 41.772h7.957v-.402h-7.957v.402zm-.2-40.646v40.445h.401V33.09h-.401zm8.157-.201h-7.957v.401h7.957v-.401zm.2 40.646V33.09h-.401v40.445h.402zM32.504 44.822a.862.862 0 0 0-.864.864h.402a.46.46 0 0 1 .462-.462v-.402zm9.283 0h-9.283v.402h9.283v-.402zm.864.864a.862.862 0 0 0-.864-.864v.402a.46.46 0 0 1 .462.462h.402zm0 28.511v-28.51h-.402v28.51h.402zm-.864.864a.862.862 0 0 0 .864-.864h-.402a.46.46 0 0 1-.462.462v.402zm-9.283 0h9.283v-.402h-9.283v.402zm-.864-.864c0 .479.386.864.864.864v-.402a.46.46 0 0 1-.462-.462h-.402zm0-28.51v28.51h.402v-28.51h-.402zm9.484 27.646h-7.957v.402h7.957v-.402zm-.201-26.984v27.185h.402V46.35h-.402zm-7.756.201h7.957v-.401h-7.957v.401zm.201 26.984V46.35h-.402v27.185h.402zm-17.89-15.45a.862.862 0 0 0-.865.863h.402a.46.46 0 0 1 .462-.462v-.402zm9.282 0h-9.283v.401h9.283v-.402zm.864.863a.862.862 0 0 0-.864-.864v.402a.46.46 0 0 1 .462.462h.402zm0 15.25v-15.25h-.402v15.25h.402zm-.864.864a.862.862 0 0 0 .864-.864h-.402a.46.46 0 0 1-.462.462v.402zm-9.283 0h9.283v-.402h-9.283v.402zm-.864-.864c0 .479.385.864.864.864v-.402a.46.46 0 0 1-.462-.462h-.402zm0-15.25v15.25h.402v-15.25h-.402zm9.484 14.386h-7.957v.402h7.957v-.402zm-.201-13.723v13.924h.402V59.61h-.402zm-7.756.201h7.957v-.402h-7.957v.402zm.201 13.723V59.61h-.402v13.924h.402zm71.796 5.59H.864v.402h87.272v-.402zm.462-.462a.46.46 0 0 1-.462.462v.402a.862.862 0 0 0 .864-.864h-.402zm-.462-.462a.46.46 0 0 1 .462.462H89a.862.862 0 0 0-.864-.864v.402zm-87.272 0h87.272v-.402H.864v.402zm-.462.462a.46.46 0 0 1 .462-.462v-.402a.862.862 0 0 0-.864.864h.402zm.462.462a.46.46 0 0 1-.462-.462H0c0 .478.385.864.864.864v-.402z" mask="url(#main-c)"></path>
    <defs>
        <linearGradient id="main-a" x1=".201" x2="91.143" y1=".201" y2=".201" gradientUnits="userSpaceOnUse">
            <stop stop-color="#6050F5"></stop>
            <stop offset="1" stop-color="#78B4F8"></stop>
        </linearGradient>
        <linearGradient id="main-b" x1=".201" x2="91.143" y1=".201" y2=".201" gradientUnits="userSpaceOnUse">
            <stop stop-color="#6050F5"></stop>
            <stop offset="1" stop-color="#78B4F8"></stop>
        </linearGradient>
    </defs>
</svg>