<svg width="33" height="32" viewBox="0 0 33 32" fill="none" xmlns="http://www.w3.org/2000/svg">
    <path fill-rule="evenodd" clip-rule="evenodd" d="M4 0C1.79086 0 0 1.79086 0 4V27.7358C0 29.945 1.79086 31.7358 4 31.7358H28.1209C30.3301 31.7358 32.1209 29.945 32.1209 27.7358V4C32.1209 1.79086 30.3301 0 28.1209 0H4ZM18.0802 27.7686H13.2334L13.225 15.8096H10.7051V11.743H13.225V8.5396C13.225 5.53533 14.8462 3.9668 18.4581 3.9668H21.8181V8.11634H19.1973C18.2733 8.11634 18.0802 8.48979 18.0802 9.43589V11.7513H21.7929L21.4401 15.7681H18.0802V27.7686Z" fill="#F2F2F2"></path>
</svg>