<svg width="101" height="100" viewBox="0 0 101 100" fill="none" xmlns="http://www.w3.org/2000/svg">
    <g clip-path="url(#clip0-1)">
        <path d="M82.8936 100.051C82.8936 100.836 82.2313 101.5 81.3936 101.5C80.5558 101.5 79.8936 100.836 79.8936 100.051C79.8936 92.6854 77.0853 87.1647 71.8153 83.5074C66.575 79.8707 58.9569 78.1154 49.3936 78.1154C39.8302 78.1154 32.2121 79.8707 26.9718 83.5074C21.7018 87.1647 18.8936 92.6854 18.8936 100.051C18.8936 100.836 18.2313 101.5 17.3936 101.5C16.5558 101.5 15.8936 100.836 15.8936 100.051C15.8936 91.6824 19.084 85.5076 24.8182 81.4056C30.578 77.2853 38.9595 75.2179 49.3936 75.2179C59.8277 75.2179 68.2091 77.2853 73.9689 81.4056C79.7031 85.5076 82.8936 91.6824 82.8936 100.051ZM49.3936 70.3205C44.3931 70.3205 40.0292 67.5735 36.897 63.3137C33.7637 59.0524 31.8936 53.3114 31.8936 47.4359C31.8936 36.0775 39.2227 26.5 49.3936 26.5C59.5644 26.5 66.8936 36.0775 66.8936 47.4359C66.8936 53.3114 65.0234 59.0524 61.8901 63.3137C58.7579 67.5735 54.3941 70.3205 49.3936 70.3205ZM49.3936 67.4231C53.477 67.4231 57.112 64.9353 59.7034 61.2373C62.2982 57.5346 63.8936 52.5617 63.8936 47.4359C63.8936 37.6807 57.7916 29.3974 49.3936 29.3974C40.9955 29.3974 34.8936 37.6807 34.8936 47.4359C34.8936 52.5617 36.4889 57.5346 39.0837 61.2374C41.6751 64.9353 45.3101 67.4231 49.3936 67.4231Z" fill="url(#paint-1-0_linear)" stroke="white"></path>
        <path d="M74.6946 21.9H74.6989C75.0234 21.9 75.3304 21.79 75.5523 21.5928L75.5528 21.5923L80.9451 16.873C81.4099 16.4661 81.4095 15.8137 80.9453 15.4104L80.9448 15.4099C80.4763 14.9968 79.7061 14.9965 79.2334 15.4101C79.2334 15.4101 79.2334 15.4101 79.2334 15.4101L73.8412 20.1295C73.5 20.428 73.402 20.8695 73.5828 21.2534M74.6946 21.9L73.5828 21.2534M74.6946 21.9C74.2002 21.8985 73.7644 21.639 73.5828 21.2534M74.6946 21.9L73.5828 21.2534" fill="url(#paint-1-1_linear)" stroke="white" stroke-width="0.2"></path>
        <path d="M18.596 43.665L18.5964 43.665C19.3143 43.6625 19.8988 44.231 19.8989 44.9334C19.8961 45.6331 19.3145 46.1995 18.5959 46.2022C18.5958 46.2022 18.5957 46.2022 18.5956 46.2022L10.3807 46.2022C10.3807 46.2022 10.3807 46.2022 10.3807 46.2022C9.65917 46.2022 9.07521 45.633 9.07784 44.934L9.07784 44.9336C9.07787 44.2312 9.65941 43.665 10.3807 43.665L18.596 43.665Z" fill="url(#paint-1-2_linear)" stroke="white" stroke-width="0.2"></path>
        <path d="M49.6621 11.0563C48.9632 11.0563 48.3949 10.4915 48.3949 9.78909V1.3672C48.3949 0.664785 48.9632 0.1 49.6621 0.1C50.361 0.1 50.9293 0.664804 50.9293 1.3672V9.7891C50.9293 10.49 50.3634 11.0539 49.6666 11.0563H49.6621Z" fill="url(#paint-1-3_linear)" stroke="white" stroke-width="0.2"></path>
        <path d="M23.9451 20.1295L23.9454 20.1297C24.4094 20.533 24.4099 21.1853 23.9452 21.5922C23.4727 22.0026 22.706 22.0026 22.2335 21.5922C22.2335 21.5921 22.2334 21.5921 22.2334 21.5921L16.842 16.873C16.3772 16.4661 16.3777 15.8136 16.8417 15.4104L16.8417 15.4104L16.842 15.4101C17.3145 14.9966 18.081 14.9966 18.5534 15.4101L23.9451 20.1295Z" fill="url(#paint-1-4_linear)" stroke="white" stroke-width="0.2"></path>
        <path d="M88.596 43.665L88.5964 43.665C89.3143 43.6625 89.8988 44.231 89.8989 44.9334C89.8961 45.6331 89.3145 46.1995 88.5959 46.2022C88.5958 46.2022 88.5957 46.2022 88.5956 46.2022L80.3807 46.2022C80.3807 46.2022 80.3807 46.2022 80.3807 46.2022C79.6592 46.2022 79.0752 45.633 79.0778 44.934L79.0778 44.9336C79.0779 44.2312 79.6594 43.665 80.3807 43.665L88.596 43.665Z" fill="url(#paint-1-5_linear)" stroke="white" stroke-width="0.2"></path>
    </g>
    <defs>
        <linearGradient id="paint-1-0_linear" x1="15.3936" y1="26" x2="85.1925" y2="26" gradientUnits="userSpaceOnUse">
            <stop stop-color="#6050F5"></stop>
            <stop offset="1" stop-color="#78B4F8"></stop>
        </linearGradient>
        <linearGradient id="paint-1-1_linear" x1="73.3936" y1="15" x2="81.6052" y2="15" gradientUnits="userSpaceOnUse">
            <stop stop-color="#6050F5"></stop>
            <stop offset="1" stop-color="#78B4F8"></stop>
        </linearGradient>
        <linearGradient id="paint-1-2_linear" x1="8.39355" y1="44.9336" x2="14.4828" y2="38.6798" gradientUnits="userSpaceOnUse">
            <stop stop-color="#6050F5"></stop>
            <stop offset="1" stop-color="#78B4F8"></stop>
        </linearGradient>
        <linearGradient id="paint-1-3_linear" x1="48.2949" y1="0" x2="51.1017" y2="0" gradientUnits="userSpaceOnUse">
            <stop stop-color="#6050F5"></stop>
            <stop offset="1" stop-color="#78B4F8"></stop>
        </linearGradient>
        <linearGradient id="paint-1-4_linear" x1="16.3936" y1="15" x2="24.6052" y2="15" gradientUnits="userSpaceOnUse">
            <stop stop-color="#6050F5"></stop>
            <stop offset="1" stop-color="#78B4F8"></stop>
        </linearGradient>
        <linearGradient id="paint-1-5_linear" x1="78.3936" y1="44.9336" x2="84.4828" y2="38.6798" gradientUnits="userSpaceOnUse">
            <stop stop-color="#6050F5"></stop>
            <stop offset="1" stop-color="#78B4F8"></stop>
        </linearGradient>
        <clipPath id="clip0-1">
            <rect x="0.393555" width="100" height="100" fill="white"></rect>
        </clipPath>
    </defs>
</svg>