<svg width="33" height="32" viewBox="0 0 33 32" fill="none" xmlns="http://www.w3.org/2000/svg">
    <path fill-rule="evenodd" clip-rule="evenodd" d="M4.54492 0C2.33578 0 0.544922 1.79086 0.544922 4V27.7358C0.544922 29.945 2.33578 31.7358 4.54492 31.7358H28.6659C30.875 31.7358 32.6659 29.945 32.6659 27.7358V4C32.6659 1.79086 30.875 0 28.6659 0H4.54492ZM9.9811 10.0769C9.54366 10.3602 9.03091 10.5086 8.50796 10.5033C7.81215 10.4986 7.14658 10.2215 6.65709 9.73286C6.16761 9.24417 5.8941 8.58368 5.8965 7.89611C5.89653 7.37932 6.05198 6.87421 6.34311 6.4449C6.63424 6.01559 7.04792 5.68146 7.53161 5.48494C8.0153 5.28841 8.54719 5.23837 9.05972 5.34115C9.57226 5.44393 10.0423 5.69491 10.4102 6.0622C10.7781 6.4295 11.0273 6.89654 11.126 7.40403C11.2247 7.91152 11.1686 8.43656 10.9648 8.91247C10.7609 9.38838 10.4185 9.7937 9.9811 10.0769ZM6.32031 12.3438H10.7419V26.4453H6.32031V12.3438ZM17.8066 19.0533C17.8066 17.0693 18.7071 15.886 20.5081 15.886C22.138 15.886 22.9124 17.0159 22.9124 19.0533V26.4556H27.3159V17.5587C27.3159 13.7774 25.1457 11.9535 22.12 11.9535C21.26 11.9425 20.4118 12.1514 19.6576 12.5598C18.9034 12.9683 18.2688 13.5624 17.8156 14.2845V12.3806H13.5742V26.4912H17.8156L17.8066 19.0533Z" fill="#F2F2F2"></path>
</svg>