<svg width="70" height="101" viewBox="0 0 70 101" fill="none" xmlns="http://www.w3.org/2000/svg">
    <mask id="path-1-inside-1" fill="white">
        <path fill-rule="evenodd" clip-rule="evenodd" d="M52.4155 11.6924C53.8005 11.1606 55.1855 10.8421 56.6759 10.8421L56.6774 10.8428C63.7075 10.7378 69.6748 16.2654 69.9939 23.28C70.0994 26.8938 68.8227 30.1893 66.3719 32.7399C63.9237 35.2905 60.6208 36.6724 57.1043 36.6724H44.2122C40.1654 36.6724 36.968 33.3768 36.968 29.4443V21.7899L33.346 25.4039L32.1747 24.2353L37.7146 18.7076L43.2545 24.2379L42.0833 25.4066L38.4612 21.7926V29.447C38.4612 32.5293 41.0174 35.0799 44.1066 35.0799L56.8823 35.0853C60.0799 35.0853 62.9554 33.8087 65.087 31.5765C67.3268 29.3444 68.3898 26.3673 68.2843 23.2851C68.0704 17.226 62.7441 12.338 56.6713 12.4433C55.1808 12.4433 53.7958 12.867 52.4109 13.3987C52.3054 14.5701 52.1999 15.7388 51.7725 16.9075L50.282 16.3758C50.6012 15.3124 50.8149 14.0357 50.8149 12.867C50.8149 6.69939 45.8076 1.5982 39.5211 1.5982C34.0866 1.5982 29.507 5.42513 28.4412 10.7395C29.1878 11.5898 29.8262 12.4399 30.2536 13.5034L28.7632 14.1404C27.4863 11.1633 24.5026 9.24969 21.1998 9.24969C16.6174 9.24969 12.8899 12.969 12.8899 17.5412V18.3914H10.0145C6.07026 18.3914 2.55643 21.2605 1.80985 25.0877V25.4062C1.70436 25.8327 1.70436 26.3617 1.70436 26.7881C1.70436 31.4654 5.53715 35.1846 10.1195 35.1846H23.6528C27.5944 35.1846 30.7917 38.4802 30.7917 42.4127V50.9177L34.4138 47.3037L35.5851 48.4723L30.0452 54L24.5052 48.4723L25.6765 47.3037L29.2986 50.9177V42.4127C29.2986 39.3304 26.8478 36.7798 23.7587 36.7798H10.0141C4.47411 36.7798 0 32.3156 0 26.7879C0 26.151 0 25.6193 0.105494 25.0876L0.210988 24.7691C1.16801 20.0916 5.3233 16.7961 10.0111 16.7961H11.2906C11.7186 11.6953 15.9787 7.65476 21.1995 7.65476C23.331 7.65476 25.3544 8.39968 27.0586 9.56837C28.5488 3.93251 33.6643 0 39.5234 0C46.2372 0 51.7771 5.10126 52.4155 11.6924ZM35.0019 63C38.5946 63 41.9887 63.5079 44.5538 64.4304L44.5537 64.4301C48.2257 65.7503 49 67.4421 49 68.6278V95.3715C49 97.6591 46.1852 99.5059 41.2878 100.44C39.2132 100.819 37.1085 101.007 34.9981 101C31.4054 101 28.0114 100.492 25.4463 99.5694C21.7743 98.2492 21 96.5575 21 95.3717V68.6281C21 67.4424 21.7761 65.7506 25.4481 64.4304C28.0133 63.5079 31.4092 63 35.0019 63ZM40.9326 98.6062C42.8907 98.2327 44.5256 97.6856 45.6569 97.0227H45.6566C46.5849 96.4794 47.1205 95.8781 47.1205 95.372V89.3593C46.32 89.8803 45.4574 90.3023 44.5535 90.6142H44.5516C41.9884 91.5366 38.5906 92.0445 34.9978 92.0445C31.4051 92.0445 28.0111 91.5366 25.446 90.6142C24.5421 90.3023 23.6795 89.8803 22.879 89.3593V95.372C22.879 95.9957 23.7247 96.9649 26.0849 97.8145C28.4509 98.6641 31.6192 99.1328 34.9999 99.1328C36.9899 99.1403 38.9763 98.9648 40.9326 98.6062ZM43.9149 88.8586C46.2752 88.0089 47.1208 87.0398 47.1208 86.4161L47.1207 80.4651C46.3201 80.986 45.4576 81.4062 44.5537 81.7199H44.5518C41.9886 82.6424 38.5907 83.1503 34.998 83.1503C31.4053 83.1503 28.0112 82.6424 25.4461 81.7199C24.5422 81.4062 23.6797 80.986 22.8791 80.4651V86.4161C22.8791 87.0398 23.7248 88.009 26.087 88.8586C28.451 89.7082 31.6212 90.1769 35.0019 90.1769C38.3844 90.1769 41.5508 89.7082 43.9149 88.8586ZM35.0019 81.2829C38.3844 81.2829 41.5508 80.8142 43.9149 79.9646H43.9147C46.275 79.1149 47.1207 78.1458 47.1207 77.5221V71.5691C46.3201 72.0901 45.4576 72.5121 44.5518 72.824C41.9866 73.7464 38.5907 74.2544 34.998 74.2544C31.4053 74.2544 28.0112 73.7464 25.4461 72.824C24.5422 72.5122 23.6797 72.0901 22.8791 71.5691V77.5221C22.8791 78.1458 23.7248 79.115 26.087 79.9646C28.451 80.8142 31.6212 81.2829 35.0019 81.2829ZM35 72.3872C38.3806 72.3872 41.5452 71.9203 43.9111 71.0688C46.2714 70.2192 47.1133 69.2519 47.1152 68.6264C47.1152 68.0045 46.2733 67.0354 43.9111 66.1858C41.5452 65.3361 38.3806 64.8674 35 64.8674C31.6195 64.8674 28.4549 65.3362 26.089 66.1876C23.7268 67.0354 22.8849 68.0045 22.8849 68.6282C22.8849 69.2501 23.7268 70.2192 26.089 71.0688C28.4549 71.9185 31.6195 72.3872 35 72.3872Z"></path>
    </mask>
    <path fill-rule="evenodd" clip-rule="evenodd" d="M52.4155 11.6924C53.8005 11.1606 55.1855 10.8421 56.6759 10.8421L56.6774 10.8428C63.7075 10.7378 69.6748 16.2654 69.9939 23.28C70.0994 26.8938 68.8227 30.1893 66.3719 32.7399C63.9237 35.2905 60.6208 36.6724 57.1043 36.6724H44.2122C40.1654 36.6724 36.968 33.3768 36.968 29.4443V21.7899L33.346 25.4039L32.1747 24.2353L37.7146 18.7076L43.2545 24.2379L42.0833 25.4066L38.4612 21.7926V29.447C38.4612 32.5293 41.0174 35.0799 44.1066 35.0799L56.8823 35.0853C60.0799 35.0853 62.9554 33.8087 65.087 31.5765C67.3268 29.3444 68.3898 26.3673 68.2843 23.2851C68.0704 17.226 62.7441 12.338 56.6713 12.4433C55.1808 12.4433 53.7958 12.867 52.4109 13.3987C52.3054 14.5701 52.1999 15.7388 51.7725 16.9075L50.282 16.3758C50.6012 15.3124 50.8149 14.0357 50.8149 12.867C50.8149 6.69939 45.8076 1.5982 39.5211 1.5982C34.0866 1.5982 29.507 5.42513 28.4412 10.7395C29.1878 11.5898 29.8262 12.4399 30.2536 13.5034L28.7632 14.1404C27.4863 11.1633 24.5026 9.24969 21.1998 9.24969C16.6174 9.24969 12.8899 12.969 12.8899 17.5412V18.3914H10.0145C6.07026 18.3914 2.55643 21.2605 1.80985 25.0877V25.4062C1.70436 25.8327 1.70436 26.3617 1.70436 26.7881C1.70436 31.4654 5.53715 35.1846 10.1195 35.1846H23.6528C27.5944 35.1846 30.7917 38.4802 30.7917 42.4127V50.9177L34.4138 47.3037L35.5851 48.4723L30.0452 54L24.5052 48.4723L25.6765 47.3037L29.2986 50.9177V42.4127C29.2986 39.3304 26.8478 36.7798 23.7587 36.7798H10.0141C4.47411 36.7798 0 32.3156 0 26.7879C0 26.151 0 25.6193 0.105494 25.0876L0.210988 24.7691C1.16801 20.0916 5.3233 16.7961 10.0111 16.7961H11.2906C11.7186 11.6953 15.9787 7.65476 21.1995 7.65476C23.331 7.65476 25.3544 8.39968 27.0586 9.56837C28.5488 3.93251 33.6643 0 39.5234 0C46.2372 0 51.7771 5.10126 52.4155 11.6924ZM35.0019 63C38.5946 63 41.9887 63.5079 44.5538 64.4304L44.5537 64.4301C48.2257 65.7503 49 67.4421 49 68.6278V95.3715C49 97.6591 46.1852 99.5059 41.2878 100.44C39.2132 100.819 37.1085 101.007 34.9981 101C31.4054 101 28.0114 100.492 25.4463 99.5694C21.7743 98.2492 21 96.5575 21 95.3717V68.6281C21 67.4424 21.7761 65.7506 25.4481 64.4304C28.0133 63.5079 31.4092 63 35.0019 63ZM40.9326 98.6062C42.8907 98.2327 44.5256 97.6856 45.6569 97.0227H45.6566C46.5849 96.4794 47.1205 95.8781 47.1205 95.372V89.3593C46.32 89.8803 45.4574 90.3023 44.5535 90.6142H44.5516C41.9884 91.5366 38.5906 92.0445 34.9978 92.0445C31.4051 92.0445 28.0111 91.5366 25.446 90.6142C24.5421 90.3023 23.6795 89.8803 22.879 89.3593V95.372C22.879 95.9957 23.7247 96.9649 26.0849 97.8145C28.4509 98.6641 31.6192 99.1328 34.9999 99.1328C36.9899 99.1403 38.9763 98.9648 40.9326 98.6062ZM43.9149 88.8586C46.2752 88.0089 47.1208 87.0398 47.1208 86.4161L47.1207 80.4651C46.3201 80.986 45.4576 81.4062 44.5537 81.7199H44.5518C41.9886 82.6424 38.5907 83.1503 34.998 83.1503C31.4053 83.1503 28.0112 82.6424 25.4461 81.7199C24.5422 81.4062 23.6797 80.986 22.8791 80.4651V86.4161C22.8791 87.0398 23.7248 88.009 26.087 88.8586C28.451 89.7082 31.6212 90.1769 35.0019 90.1769C38.3844 90.1769 41.5508 89.7082 43.9149 88.8586ZM35.0019 81.2829C38.3844 81.2829 41.5508 80.8142 43.9149 79.9646H43.9147C46.275 79.1149 47.1207 78.1458 47.1207 77.5221V71.5691C46.3201 72.0901 45.4576 72.5121 44.5518 72.824C41.9866 73.7464 38.5907 74.2544 34.998 74.2544C31.4053 74.2544 28.0112 73.7464 25.4461 72.824C24.5422 72.5122 23.6797 72.0901 22.8791 71.5691V77.5221C22.8791 78.1458 23.7248 79.115 26.087 79.9646C28.451 80.8142 31.6212 81.2829 35.0019 81.2829ZM35 72.3872C38.3806 72.3872 41.5452 71.9203 43.9111 71.0688C46.2714 70.2192 47.1133 69.2519 47.1152 68.6264C47.1152 68.0045 46.2733 67.0354 43.9111 66.1858C41.5452 65.3361 38.3806 64.8674 35 64.8674C31.6195 64.8674 28.4549 65.3362 26.089 66.1876C23.7268 67.0354 22.8849 68.0045 22.8849 68.6282C22.8849 69.2501 23.7268 70.2192 26.089 71.0688C28.4549 71.9185 31.6195 72.3872 35 72.3872Z" fill="url(#paint0_linear)"></path>
    <path d="M56.6759 10.8421L56.7574 10.6595L56.7185 10.6421H56.6759V10.8421ZM52.4155 11.6924L52.2164 11.7116L52.2418 11.9733L52.4872 11.8791L52.4155 11.6924ZM56.6774 10.8428L56.5959 11.0254L56.6362 11.0434L56.6803 11.0428L56.6774 10.8428ZM69.9939 23.28L70.1939 23.2742L70.1937 23.2709L69.9939 23.28ZM66.3719 32.7399L66.2277 32.6013L66.2276 32.6014L66.3719 32.7399ZM36.968 21.7899H37.168V21.3078L36.8268 21.6483L36.968 21.7899ZM33.346 25.4039L33.2047 25.5455L33.346 25.6865L33.4872 25.5455L33.346 25.4039ZM32.1747 24.2353L32.0334 24.0937L31.8915 24.2353L32.0334 24.3768L32.1747 24.2353ZM37.7146 18.7076L37.8559 18.5661L37.7146 18.425L37.5733 18.566L37.7146 18.7076ZM43.2545 24.2379L43.3958 24.3795L43.5377 24.238L43.3958 24.0964L43.2545 24.2379ZM42.0833 25.4066L41.942 25.5482L42.0833 25.6892L42.2245 25.5482L42.0833 25.4066ZM38.4612 21.7926L38.6025 21.651L38.2612 21.3105V21.7926H38.4612ZM44.1066 35.0799L44.1067 34.8799H44.1066V35.0799ZM56.8823 35.0853L56.8823 35.2853H56.8823V35.0853ZM65.087 31.5765L64.9457 31.4348L64.9423 31.4384L65.087 31.5765ZM68.2843 23.2851L68.4842 23.2782L68.4842 23.278L68.2843 23.2851ZM56.6713 12.4433V12.6433L56.6747 12.6432L56.6713 12.4433ZM52.4109 13.3987L52.3392 13.212L52.2228 13.2567L52.2117 13.3808L52.4109 13.3987ZM51.7725 16.9075L51.7053 17.0958L51.8922 17.1625L51.9603 16.9762L51.7725 16.9075ZM50.282 16.3758L50.0905 16.3183L50.0358 16.5003L50.2148 16.5641L50.282 16.3758ZM28.4412 10.7395L28.2451 10.7002L28.2257 10.7972L28.291 10.8715L28.4412 10.7395ZM30.2536 13.5034L30.3322 13.6873L30.5122 13.6104L30.4392 13.4288L30.2536 13.5034ZM28.7632 14.1404L28.5794 14.2192L28.6581 14.4028L28.8418 14.3243L28.7632 14.1404ZM12.8899 18.3914V18.5914H13.0899V18.3914H12.8899ZM1.80985 25.0877L1.61355 25.0494L1.60985 25.0684V25.0877H1.80985ZM1.80985 25.4062L2.004 25.4542L2.00985 25.4306V25.4062H1.80985ZM30.7917 50.9177H30.5917V51.3998L30.933 51.0593L30.7917 50.9177ZM34.4138 47.3037L34.5551 47.1621L34.4138 47.0211L34.2725 47.1621L34.4138 47.3037ZM35.5851 48.4723L35.7263 48.6139L35.8682 48.4723L35.7263 48.3308L35.5851 48.4723ZM30.0452 54L29.9039 54.1416L30.0452 54.2825L30.1864 54.1416L30.0452 54ZM24.5052 48.4723L24.364 48.3308L24.2221 48.4723L24.364 48.6139L24.5052 48.4723ZM25.6765 47.3037L25.8178 47.1621L25.6765 47.0211L25.5352 47.1621L25.6765 47.3037ZM29.2986 50.9177L29.1573 51.0593L29.4986 51.3998V50.9177H29.2986ZM0.105494 25.0876L-0.0843621 25.0247L-0.0882659 25.0365L-0.0906821 25.0486L0.105494 25.0876ZM0.210988 24.7691L0.400844 24.8319L0.40456 24.8207L0.406929 24.8092L0.210988 24.7691ZM11.2906 16.7961V16.9961H11.4746L11.4899 16.8128L11.2906 16.7961ZM27.0586 9.56837L26.9455 9.7333L27.1794 9.89375L27.2519 9.61949L27.0586 9.56837ZM44.5538 64.4304L44.4861 64.6186L44.823 64.7397L44.7495 64.3893L44.5538 64.4304ZM44.5537 64.4301L44.6214 64.2419L44.2845 64.1208L44.358 64.4712L44.5537 64.4301ZM41.2878 100.44L41.3237 100.636L41.3252 100.636L41.2878 100.44ZM34.9981 101L34.9988 100.8H34.9981V101ZM25.4463 99.5694L25.5139 99.3812H25.5139L25.4463 99.5694ZM25.4481 64.4304L25.5158 64.6186L25.5158 64.6186L25.4481 64.4304ZM45.6569 97.0227L45.758 97.1953L46.3938 96.8227H45.6569V97.0227ZM40.9326 98.6062L40.9686 98.803L40.97 98.8027L40.9326 98.6062ZM45.6566 97.0227L45.5556 96.8501L44.919 97.2227H45.6566V97.0227ZM47.1205 89.3593H47.3205V88.9905L47.0114 89.1917L47.1205 89.3593ZM44.5535 90.6142V90.8142H44.587L44.6187 90.8032L44.5535 90.6142ZM44.5516 90.6142V90.4142H44.5167L44.4839 90.426L44.5516 90.6142ZM25.446 90.6142L25.5136 90.4259L25.5112 90.4251L25.446 90.6142ZM22.879 89.3593L22.988 89.1917L22.679 88.9906V89.3593H22.879ZM26.0849 97.8145L26.0172 98.0027L26.0173 98.0027L26.0849 97.8145ZM34.9999 99.1328L35.0006 98.9328H34.9999V99.1328ZM47.1208 86.4161H47.3209V86.4161L47.1208 86.4161ZM43.9149 88.8586L43.9825 89.0468L43.9826 89.0468L43.9149 88.8586ZM47.1207 80.4651L47.3207 80.4651L47.3206 80.0963L47.0116 80.2974L47.1207 80.4651ZM44.5537 81.7199V81.9199H44.5874L44.6192 81.9089L44.5537 81.7199ZM44.5518 81.7199V81.5199H44.5169L44.4841 81.5317L44.5518 81.7199ZM25.4461 81.7199L25.5138 81.5317L25.5117 81.531L25.4461 81.7199ZM22.8791 80.4651L22.9882 80.2974L22.6791 80.0963V80.4651H22.8791ZM26.087 88.8586L26.0193 89.0468L26.0193 89.0468L26.087 88.8586ZM43.9149 79.9646L43.9825 80.1528L43.9149 79.7646V79.9646ZM43.9147 79.9646L43.8469 79.7764L43.9147 80.1646V79.9646ZM47.1207 71.5691H47.3207V71.2004L47.0116 71.4015L47.1207 71.5691ZM44.5518 72.824L44.4867 72.6349L44.4841 72.6358L44.5518 72.824ZM25.4461 72.824L25.5138 72.6358L25.5113 72.6349L25.4461 72.824ZM22.8791 71.5691L22.9882 71.4015L22.6791 71.2004V71.5691H22.8791ZM26.087 79.9646L26.0193 80.1528L26.0193 80.1528L26.087 79.9646ZM43.9111 71.0688L43.9788 71.257L43.9789 71.257L43.9111 71.0688ZM47.1152 68.6264L47.3152 68.627V68.6264H47.1152ZM43.9111 66.1858L43.9788 65.9976L43.9787 65.9975L43.9111 66.1858ZM26.089 66.1876L26.1565 66.3759L26.1567 66.3758L26.089 66.1876ZM26.089 71.0688L26.0213 71.257L26.0214 71.2571L26.089 71.0688ZM56.6759 10.6421C55.1556 10.6421 53.7461 10.9673 52.3438 11.5057L52.4872 11.8791C53.8549 11.354 55.2153 11.0421 56.6759 11.0421V10.6421ZM56.7588 10.6601L56.7574 10.6595L56.5944 11.0248L56.5959 11.0254L56.7588 10.6601ZM70.1937 23.2709C69.8696 16.1464 63.8106 10.5362 56.6744 10.6428L56.6803 11.0428C63.6043 10.9393 69.48 16.3844 69.7942 23.2891L70.1937 23.2709ZM66.5161 32.8785C69.0044 30.2889 70.3009 26.9412 70.1939 23.2742L69.794 23.2858C69.8979 26.8464 68.641 30.0897 66.2277 32.6013L66.5161 32.8785ZM57.1043 36.8724C60.6744 36.8724 64.0297 35.4689 66.5162 32.8784L66.2276 32.6014C63.8177 35.1121 60.5672 36.4724 57.1043 36.4724V36.8724ZM44.2122 36.8724H57.1043V36.4724H44.2122V36.8724ZM36.768 29.4443C36.768 33.4858 40.0535 36.8724 44.2122 36.8724V36.4724C40.2773 36.4724 37.168 33.2678 37.168 29.4443H36.768ZM36.768 21.7899V29.4443H37.168V21.7899H36.768ZM33.4872 25.5455L37.1093 21.9315L36.8268 21.6483L33.2047 25.2624L33.4872 25.5455ZM32.0334 24.3768L33.2047 25.5455L33.4872 25.2624L32.316 24.0937L32.0334 24.3768ZM37.5733 18.566L32.0334 24.0937L32.316 24.3768L37.8559 18.8492L37.5733 18.566ZM43.3958 24.0964L37.8559 18.5661L37.5733 18.8491L43.1132 24.3795L43.3958 24.0964ZM42.2245 25.5482L43.3958 24.3795L43.1133 24.0964L41.942 25.2651L42.2245 25.5482ZM38.3199 21.9342L41.942 25.5482L42.2245 25.2651L38.6025 21.651L38.3199 21.9342ZM38.6612 29.447V21.7926H38.2612V29.447H38.6612ZM44.1066 34.8799C41.1275 34.8799 38.6612 32.4184 38.6612 29.447H38.2612C38.2612 32.6402 40.9074 35.2799 44.1066 35.2799V34.8799ZM56.8824 34.8853L44.1067 34.8799L44.1065 35.2799L56.8823 35.2853L56.8824 34.8853ZM64.9423 31.4384C62.8478 33.6318 60.0243 34.8853 56.8823 34.8853V35.2853C60.1356 35.2853 63.063 33.9856 65.2316 31.7147L64.9423 31.4384ZM68.0844 23.2919C68.1882 26.3231 67.1432 29.245 64.9458 31.4349L65.2281 31.7182C67.5103 29.4438 68.5915 26.4116 68.4842 23.2782L68.0844 23.2919ZM56.6747 12.6432C62.6425 12.5398 67.8745 17.346 68.0845 23.2921L68.4842 23.278C68.2662 17.106 62.8456 12.1362 56.6678 12.2433L56.6747 12.6432ZM52.4825 13.5854C53.8611 13.0562 55.2183 12.6433 56.6713 12.6433V12.2433C55.1434 12.2433 53.7306 12.6778 52.3392 13.212L52.4825 13.5854ZM51.9603 16.9762C52.3981 15.7791 52.5049 14.5847 52.6101 13.4167L52.2117 13.3808C52.1059 14.5555 52.0017 15.6985 51.5846 16.8388L51.9603 16.9762ZM50.2148 16.5641L51.7053 17.0958L51.8397 16.7191L50.3492 16.1874L50.2148 16.5641ZM50.6149 12.867C50.6149 14.0139 50.4048 15.2711 50.0905 16.3183L50.4736 16.4333C50.7977 15.3536 51.0149 14.0575 51.0149 12.867H50.6149ZM39.5211 1.7982C45.6963 1.7982 50.6149 6.80905 50.6149 12.867H51.0149C51.0149 6.58973 45.9188 1.3982 39.5211 1.3982V1.7982ZM28.6373 10.7789C29.6848 5.55612 34.1837 1.7982 39.5211 1.7982V1.3982C33.9895 1.3982 29.3293 5.29414 28.2451 10.7002L28.6373 10.7789ZM30.4392 13.4288C29.9995 12.3346 29.344 11.4646 28.5915 10.6076L28.291 10.8715C29.0316 11.715 29.653 12.5452 30.0681 13.578L30.4392 13.4288ZM28.8418 14.3243L30.3322 13.6873L30.175 13.3195L28.6846 13.9564L28.8418 14.3243ZM21.1998 9.44969C24.4258 9.44969 27.3352 11.3185 28.5794 14.2192L28.947 14.0615C27.6373 11.0081 24.5794 9.0497 21.1998 9.0497V9.44969ZM13.0899 17.5412C13.0899 13.0799 16.7275 9.44969 21.1998 9.44969V9.0497C16.5074 9.0497 12.6899 12.8581 12.6899 17.5412H13.0899ZM13.0899 18.3914V17.5412H12.6899V18.3914H13.0899ZM10.0145 18.5914H12.8899V18.1914H10.0145V18.5914ZM2.00615 25.126C2.73411 21.3942 6.1644 18.5914 10.0145 18.5914V18.1914C5.97612 18.1914 2.37874 21.1267 1.61355 25.0494L2.00615 25.126ZM2.00985 25.4062V25.0877H1.60985V25.4062H2.00985ZM1.90436 26.7881C1.90436 26.3553 1.9055 25.8524 2.004 25.4542L1.6157 25.3582C1.50322 25.8129 1.50436 26.3681 1.50436 26.7881H1.90436ZM10.1195 34.9846C5.64556 34.9846 1.90436 31.3529 1.90436 26.7881H1.50436C1.50436 31.5779 5.42875 35.3846 10.1195 35.3846V34.9846ZM23.6528 34.9846H10.1195V35.3846H23.6528V34.9846ZM30.9917 42.4127C30.9917 38.3732 27.7082 34.9846 23.6528 34.9846V35.3846C27.4805 35.3846 30.5917 38.5873 30.5917 42.4127H30.9917ZM30.9917 50.9177V42.4127H30.5917V50.9177H30.9917ZM34.2725 47.1621L30.6505 50.7761L30.933 51.0593L34.5551 47.4452L34.2725 47.1621ZM35.7263 48.3308L34.5551 47.1621L34.2725 47.4452L35.4438 48.6139L35.7263 48.3308ZM30.1864 54.1416L35.7263 48.6139L35.4438 48.3308L29.9039 53.8584L30.1864 54.1416ZM24.364 48.6139L29.9039 54.1416L30.1864 53.8584L24.6465 48.3308L24.364 48.6139ZM25.5352 47.1621L24.364 48.3308L24.6465 48.6139L25.8178 47.4452L25.5352 47.1621ZM29.4398 50.7761L25.8178 47.1621L25.5352 47.4452L29.1573 51.0593L29.4398 50.7761ZM29.0986 42.4127V50.9177H29.4986V42.4127H29.0986ZM23.7587 36.9798C26.7329 36.9798 29.0986 39.4364 29.0986 42.4127H29.4986C29.4986 39.2245 26.9627 36.5798 23.7587 36.5798V36.9798ZM10.0141 36.9798H23.7587V36.5798H10.0141V36.9798ZM-0.2 26.7879C-0.2 32.4264 4.36407 36.9798 10.0141 36.9798V36.5798C4.58415 36.5798 0.2 32.2047 0.2 26.7879H-0.2ZM-0.0906821 25.0486C-0.20068 25.603 -0.2 26.155 -0.2 26.7879H0.2C0.2 26.147 0.20068 25.6355 0.30167 25.1265L-0.0906821 25.0486ZM0.0211319 24.7062L-0.0843621 25.0247L0.29535 25.1504L0.400844 24.8319L0.0211319 24.7062ZM10.0111 16.5961C5.2301 16.5961 0.991472 19.9567 0.0150473 24.729L0.406929 24.8092C1.34455 20.2265 5.4165 16.9961 10.0111 16.9961V16.5961ZM11.2906 16.5961H10.0111V16.9961H11.2906V16.5961ZM21.1995 7.45476C15.8727 7.45476 11.5278 11.577 11.0913 16.7794L11.4899 16.8128C11.9094 11.8135 16.0848 7.85476 21.1995 7.85476V7.45476ZM27.1717 9.40343C25.4402 8.21596 23.378 7.45476 21.1995 7.45476V7.85476C23.284 7.85476 25.2687 8.5834 26.9455 9.7333L27.1717 9.40343ZM39.5234 -0.2C33.574 -0.2 28.3788 3.79323 26.8652 9.51724L27.2519 9.61949C28.7189 4.07179 33.7547 0.2 39.5234 0.2V-0.2ZM52.6146 11.6731C51.9663 4.98012 46.3408 -0.2 39.5234 -0.2V0.2C46.1335 0.2 51.5879 5.22241 52.2164 11.7116L52.6146 11.6731ZM44.6215 64.2422C42.029 63.3099 38.6108 62.8 35.0019 62.8V63.2C38.5785 63.2 41.9484 63.706 44.4861 64.6186L44.6215 64.2422ZM44.358 64.4712L44.3581 64.4714L44.7495 64.3893L44.7495 64.3891L44.358 64.4712ZM49.2 68.6278C49.2 67.987 48.9892 67.2202 48.3035 66.4467C47.6215 65.6773 46.4768 64.909 44.6214 64.2419L44.4861 64.6183C46.3027 65.2715 47.3811 66.0091 48.0042 66.7121C48.6237 67.411 48.8 68.0829 48.8 68.6278H49.2ZM49.2 95.3715V68.6278H48.8V95.3715H49.2ZM41.3252 100.636C43.7874 100.167 45.7439 99.4648 47.0902 98.5805C48.4365 97.6961 49.2 96.6087 49.2 95.3715H48.8C48.8 96.4219 48.1561 97.4017 46.8706 98.2461C45.5852 99.0905 43.6856 99.7789 41.2503 100.243L41.3252 100.636ZM34.9974 101.2C37.1202 101.207 39.2372 101.018 41.3237 100.636L41.2518 100.243C39.1893 100.62 37.0968 100.807 34.9988 100.8L34.9974 101.2ZM25.3786 99.7576C27.9711 100.69 31.3893 101.2 34.9981 101.2V100.8C31.4215 100.8 28.0517 100.294 25.5139 99.3812L25.3786 99.7576ZM20.8 95.3717C20.8 96.0125 21.0108 96.7793 21.6965 97.5528C22.3785 98.3223 23.5232 99.0906 25.3786 99.7576L25.5139 99.3812C23.6973 98.7281 22.6189 97.9904 21.9958 97.2875C21.3763 96.5886 21.2 95.9166 21.2 95.3717H20.8ZM20.8 68.6281V95.3717H21.2V68.6281H20.8ZM25.3805 64.2422C23.5251 64.9092 22.3799 65.6775 21.6974 66.4469C21.0114 67.2204 20.8 67.9872 20.8 68.6281H21.2C21.2 68.0833 21.3767 67.4113 21.9967 66.7124C22.6203 66.0094 23.6992 65.2717 25.5158 64.6186L25.3805 64.2422ZM35.0019 62.8C31.3931 62.8 27.973 63.3099 25.3804 64.2422L25.5158 64.6186C28.0535 63.706 31.4253 63.2 35.0019 63.2V62.8ZM45.5558 96.8502C44.4517 97.4971 42.8414 98.0385 40.8951 98.4098L40.97 98.8027C42.94 98.4269 44.5995 97.8741 45.758 97.1953L45.5558 96.8502ZM45.6566 97.2227H45.6569V96.8227H45.6566V97.2227ZM46.9205 95.372C46.9205 95.5555 46.8215 95.7866 46.5871 96.0506C46.3554 96.3116 46.008 96.5853 45.5556 96.8501L45.7576 97.1953C46.2335 96.9168 46.6181 96.6182 46.8862 96.3162C47.1517 96.0172 47.3205 95.6946 47.3205 95.372H46.9205ZM46.9205 89.3593V95.372H47.3205V89.3593H46.9205ZM44.6187 90.8032C45.5381 90.486 46.4154 90.0568 47.2296 89.5269L47.0114 89.1917C46.2246 89.7038 45.3767 90.1186 44.4883 90.4251L44.6187 90.8032ZM44.5516 90.8142H44.5535V90.4142H44.5516V90.8142ZM34.9978 92.2445C38.6066 92.2445 42.0287 91.7347 44.6194 90.8024L44.4839 90.426C41.9482 91.3386 38.5745 91.8445 34.9978 91.8445V92.2445ZM25.3783 90.8024C27.9708 91.7347 31.389 92.2445 34.9978 92.2445V91.8445C31.4213 91.8445 28.0514 91.3386 25.5136 90.426L25.3783 90.8024ZM22.7699 89.527C23.5841 90.0568 24.4613 90.4861 25.3807 90.8032L25.5112 90.4251C24.6228 90.1186 23.775 89.7038 22.988 89.1917L22.7699 89.527ZM23.079 95.372V89.3593H22.679V95.372H23.079ZM26.1527 97.6263C24.9862 97.2064 24.2081 96.7618 23.7257 96.3556C23.237 95.9441 23.079 95.5966 23.079 95.372H22.679C22.679 95.7711 22.9438 96.2201 23.468 96.6615C23.9985 97.1082 24.8234 97.573 26.0172 98.0027L26.1527 97.6263ZM34.9999 98.9328C31.6348 98.9328 28.4908 98.466 26.1525 97.6263L26.0173 98.0027C28.411 98.8623 31.6035 99.3328 34.9999 99.3328V98.9328ZM40.8965 98.4095C38.9525 98.7658 36.9784 98.9402 35.0006 98.9328L34.9991 99.3328C37.0014 99.3403 39.0001 99.1637 40.9686 98.8029L40.8965 98.4095ZM46.9208 86.4161C46.9208 86.6407 46.7628 86.9882 46.2742 87.3996C45.7917 87.8058 45.0137 88.2505 43.8471 88.6704L43.9826 89.0468C45.1764 88.617 46.0013 88.1523 46.5318 87.7056C47.056 87.2642 47.3209 86.8152 47.3209 86.4161H46.9208ZM46.9207 80.4651L46.9208 86.4161L47.3209 86.4161L47.3207 80.4651L46.9207 80.4651ZM44.6192 81.9089C45.5382 81.5899 46.4154 81.1627 47.2297 80.6327L47.0116 80.2974C46.2249 80.8094 45.377 81.2225 44.4881 81.531L44.6192 81.9089ZM44.5518 81.9199H44.5537V81.5199H44.5518V81.9199ZM34.998 83.3503C38.6068 83.3503 42.0288 82.8404 44.6195 81.9081L44.4841 81.5317C41.9483 82.4443 38.5746 82.9503 34.998 82.9503V83.3503ZM25.3784 81.9081C27.971 82.8404 31.3891 83.3503 34.998 83.3503V82.9503C31.4214 82.9503 28.0515 82.4443 25.5138 81.5317L25.3784 81.9081ZM22.77 80.6327C23.5844 81.1627 24.4616 81.59 25.3805 81.9089L25.5117 81.531C24.6228 81.2225 23.7749 80.8094 22.9882 80.2974L22.77 80.6327ZM23.0791 86.4161V80.4651H22.6791V86.4161H23.0791ZM26.1546 88.6704C24.9872 88.2505 24.2086 87.8058 23.726 87.3996C23.2371 86.9881 23.0791 86.6407 23.0791 86.4161H22.6791C22.6791 86.8152 22.9439 87.2642 23.4684 87.7057C23.9991 88.1523 24.8245 88.6171 26.0193 89.0468L26.1546 88.6704ZM35.0019 89.9769C31.6368 89.9769 28.4909 89.51 26.1546 88.6704L26.0193 89.0468C28.4111 89.9064 31.6056 90.3769 35.0019 90.3769V89.9769ZM43.8472 88.6704C41.5109 89.51 38.3688 89.9769 35.0019 89.9769V90.3769C38.4 90.3769 41.5907 89.9064 43.9825 89.0468L43.8472 88.6704ZM43.8472 79.7764C41.5109 80.616 38.3688 81.0829 35.0019 81.0829V81.4829C38.4 81.4829 41.5907 81.0124 43.9825 80.1528L43.8472 79.7764ZM43.9147 80.1646H43.9149V79.7646H43.9147V80.1646ZM46.9207 77.5221C46.9207 77.7467 46.7626 78.0941 46.274 78.5056C45.7915 78.9118 45.0135 79.3565 43.8469 79.7764L43.9824 80.1527C45.1762 79.723 46.0011 79.2583 46.5316 78.8116C47.0559 78.3702 47.3207 77.9212 47.3207 77.5221H46.9207ZM46.9207 71.5691V77.5221H47.3207V71.5691H46.9207ZM44.6169 73.0131C45.5382 72.6959 46.4156 72.2666 47.2297 71.7368L47.0116 71.4015C46.2247 71.9136 45.3769 72.3284 44.4867 72.6349L44.6169 73.0131ZM34.998 74.4544C38.6068 74.4544 42.0269 73.9445 44.6195 73.0122L44.4841 72.6358C41.9464 73.5484 38.5746 74.0544 34.998 74.0544V74.4544ZM25.3784 73.0122C27.971 73.9445 31.3891 74.4544 34.998 74.4544V74.0544C31.4214 74.0544 28.0515 73.5484 25.5138 72.6358L25.3784 73.0122ZM22.77 71.7368C23.5842 72.2666 24.4615 72.6959 25.3809 73.013L25.5113 72.6349C24.6229 72.3284 23.7751 71.9136 22.9882 71.4015L22.77 71.7368ZM23.0791 77.5221V71.5691H22.6791V77.5221H23.0791ZM26.1546 79.7764C24.9872 79.3565 24.2086 78.9118 23.726 78.5056C23.2371 78.0941 23.0791 77.7467 23.0791 77.5221H22.6791C22.6791 77.9212 22.9439 78.3702 23.4684 78.8116C23.9991 79.2583 24.8245 79.7231 26.0193 80.1528L26.1546 79.7764ZM35.0019 81.0829C31.6368 81.0829 28.4909 80.616 26.1546 79.7764L26.0193 80.1528C28.4111 81.0124 31.6056 81.4829 35.0019 81.4829V81.0829ZM43.8434 70.8806C41.5053 71.7221 38.3651 72.1872 35 72.1872V72.5872C38.3961 72.5872 41.585 72.1185 43.9788 71.257L43.8434 70.8806ZM46.9152 68.6258C46.9145 68.852 46.7563 69.1997 46.2687 69.6106C45.787 70.0166 45.0099 70.4607 43.8434 70.8807L43.9789 71.257C45.1726 70.8273 45.9967 70.363 46.5265 69.9165C47.0503 69.475 47.314 69.0263 47.3152 68.627L46.9152 68.6258ZM43.8434 66.374C45.0109 66.7939 45.7884 67.2385 46.2701 67.6444C46.758 68.0556 46.9152 68.4026 46.9152 68.6264H47.3152C47.3152 68.2283 47.0515 67.7798 46.5279 67.3385C45.9981 66.892 45.1736 66.4273 43.9788 65.9976L43.8434 66.374ZM35 65.0674C38.365 65.0674 41.5053 65.5343 43.8435 66.374L43.9787 65.9975C41.5851 65.138 38.3963 64.6674 35 64.6674V65.0674ZM26.1567 66.3758C28.4949 65.5343 31.6351 65.0674 35 65.0674V64.6674C31.6039 64.6674 28.415 65.138 26.0212 65.9994L26.1567 66.3758ZM23.0849 68.6282C23.0849 68.4034 23.2423 68.0559 23.73 67.6449C24.2116 67.239 24.9891 66.7949 26.1565 66.3759L26.0214 65.9994C24.8266 66.4282 24.0021 66.8925 23.4722 67.339C22.9484 67.7804 22.6849 68.2294 22.6849 68.6282H23.0849ZM26.1567 70.8806C24.9892 70.4607 24.2117 70.0161 23.73 69.6102C23.2421 69.199 23.0849 68.852 23.0849 68.6282H22.6849C22.6849 69.0263 22.9486 69.4748 23.4722 69.916C24.002 70.3625 24.8265 70.8273 26.0213 71.257L26.1567 70.8806ZM35 72.1872C31.6351 72.1872 28.4948 71.7203 26.1566 70.8806L26.0214 71.2571C28.415 72.1166 31.6038 72.5872 35 72.5872V72.1872Z" fill="white" mask="url(#path-1-inside-1)"></path>
    <defs>
        <linearGradient id="paint0_linear" x1="0" y1="0" x2="71.8518" y2="0" gradientUnits="userSpaceOnUse">
            <stop stop-color="#6050F5"></stop>
            <stop offset="1" stop-color="#78B4F8"></stop>
        </linearGradient>
    </defs>
</svg>