<svg width="123" height="100" viewBox="0 0 123 77" fill="none" xmlns="http://www.w3.org/2000/svg">
    <path d="M122.244 72.8205C122.244 73.3877 121.782 73.85 121.217 73.85C120.652 73.85 120.191 73.3877 120.191 72.8205C120.191 68.4085 118.559 65.1165 115.502 62.9337C112.454 60.7569 108.006 59.6962 102.394 59.6962C96.7812 59.6962 92.3333 60.7569 89.2848 62.9337C86.2279 65.1165 84.5965 68.4085 84.5965 72.8205C84.5965 73.3877 84.1348 73.85 83.57 73.85C83.0053 73.85 82.5436 73.3877 82.5436 72.8205C82.5436 67.709 84.4405 63.9231 87.8553 61.4096C91.2772 58.8909 96.2409 57.6372 102.394 57.6372C108.546 57.6372 113.51 58.8909 116.932 61.4096C120.347 63.9231 122.244 67.709 122.244 72.8205ZM102.394 54.9782C99.3967 54.9782 96.7906 53.2835 94.9277 50.6767C93.0647 48.0696 91.9553 44.5621 91.9553 40.9744C91.9553 34.042 96.3081 28.15 102.394 28.15C108.479 28.15 112.832 34.042 112.832 40.9744C112.832 44.5621 111.722 48.0696 109.859 50.6767C107.997 53.2835 105.39 54.9782 102.394 54.9782ZM102.394 52.9192C104.735 52.9192 106.835 51.4509 108.341 49.2386C109.849 47.0245 110.779 44.046 110.779 40.9744C110.779 35.1219 107.227 30.209 102.394 30.209C97.5604 30.209 94.0083 35.1219 94.0083 40.9744C94.0083 44.046 94.9378 47.0245 96.4458 49.2386C97.9525 51.4509 100.052 52.9192 102.394 52.9192Z" fill="url(#paint30_linear)" stroke="white" stroke-width="0.3"></path>
    <path d="M40.2436 72.8205C40.2436 73.3877 39.7819 73.85 39.2171 73.85C38.6523 73.85 38.1906 73.3877 38.1906 72.8205C38.1906 68.4085 36.5592 65.1165 33.5023 62.9337C30.4538 60.7569 26.0059 59.6962 20.3936 59.6962C14.7812 59.6962 10.3333 60.7569 7.2848 62.9337C4.22794 65.1165 2.5965 68.4085 2.5965 72.8205C2.5965 73.3877 2.1348 73.85 1.57003 73.85C1.00525 73.85 0.543555 73.3877 0.543555 72.8205C0.543555 67.709 2.44053 63.9231 5.85528 61.4096C9.27719 58.8909 14.2409 57.6372 20.3936 57.6372C26.5462 57.6372 31.5099 58.8909 34.9318 61.4096C38.3466 63.9231 40.2436 67.709 40.2436 72.8205ZM20.3936 54.9782C17.3967 54.9782 14.7906 53.2835 12.9277 50.6767C11.0647 48.0696 9.95532 44.5621 9.95532 40.9744C9.95532 34.042 14.3081 28.15 20.3936 28.15C26.479 28.15 30.8318 34.042 30.8318 40.9744C30.8318 44.5621 29.7224 48.0696 27.8594 50.6767C25.9965 53.2835 23.3904 54.9782 20.3936 54.9782ZM20.3936 52.9192C22.7352 52.9192 24.8346 51.4509 26.3413 49.2386C27.8493 47.0245 28.7788 44.046 28.7788 40.9744C28.7788 35.1219 25.2267 30.209 20.3936 30.209C15.5604 30.209 12.0083 35.1219 12.0083 40.9744C12.0083 44.046 12.9378 47.0245 14.4458 49.2386C15.9525 51.4509 18.0519 52.9192 20.3936 52.9192Z" fill="url(#paint31_linear)" stroke="white" stroke-width="0.3"></path>
    <path d="M61.8939 50.5C36.244 50.4996 30.2274 67.8333 30.8941 76.5H92.8942C92.8942 69.1667 88.3941 50.5004 61.8939 50.5Z" fill="white"></path>
    <path d="M93.8936 74.0513C93.8936 74.8503 93.2436 75.5 92.4524 75.5C91.6612 75.5 91.0112 74.8503 91.0112 74.0513C91.0112 66.6916 88.2886 61.1713 83.17 57.5115C78.0792 53.8715 70.6793 52.1154 61.3936 52.1154C52.1078 52.1154 44.7079 53.8715 39.6171 57.5115C34.4985 61.1713 31.7759 66.6916 31.7759 74.0513C31.7759 74.8503 31.1259 75.5 30.3347 75.5C29.5435 75.5 28.8936 74.8503 28.8936 74.0513C28.8936 65.6764 31.9931 59.501 37.5553 55.4014C43.1414 51.2844 51.2704 49.2179 61.3936 49.2179C71.5167 49.2179 79.6457 51.2844 85.2318 55.4014C90.794 59.501 93.8936 65.6764 93.8936 74.0513ZM61.3936 44.3205C56.5526 44.3205 52.3215 41.5804 49.2805 37.3194C46.2392 33.0579 44.423 27.3149 44.423 21.4359C44.423 10.0623 51.5448 0.5 61.3936 0.5C71.2423 0.5 78.3641 10.0623 78.3641 21.4359C78.3641 27.3149 76.5479 33.0579 73.5066 37.3194C70.4656 41.5804 66.2345 44.3205 61.3936 44.3205ZM61.3936 41.4231C65.3701 41.4231 68.9023 38.9276 71.4162 35.2316C73.9344 31.5293 75.4818 26.5584 75.4818 21.4359C75.4818 11.6959 69.5676 3.39744 61.3936 3.39744C53.2195 3.39744 47.3053 11.6959 47.3053 21.4359C47.3053 26.5584 48.8527 31.5293 51.3709 35.2316C53.8848 38.9276 57.417 41.4231 61.3936 41.4231Z" fill="url(#paint32_linear)" stroke="white"></path>
    <defs>
        <linearGradient id="paint30_linear" x1="82.3936" y1="28" x2="123.452" y2="28" gradientUnits="userSpaceOnUse">
            <stop stop-color="#6050F5"></stop>
            <stop offset="1" stop-color="#78B4F8"></stop>
        </linearGradient>
        <linearGradient id="paint31_linear" x1="0.393555" y1="28" x2="41.4518" y2="28" gradientUnits="userSpaceOnUse">
            <stop stop-color="#6050F5"></stop>
            <stop offset="1" stop-color="#78B4F8"></stop>
        </linearGradient>
        <linearGradient id="paint32_linear" x1="28.3936" y1="0" x2="96.1396" y2="0" gradientUnits="userSpaceOnUse">
            <stop stop-color="#6050F5"></stop>
            <stop offset="1" stop-color="#78B4F8"></stop>
        </linearGradient>
    </defs>
</svg>