<svg width="33" height="32" viewBox="0 0 33 32" fill="none" xmlns="http://www.w3.org/2000/svg">
    <path fill-rule="evenodd" clip-rule="evenodd" d="M4.36328 0C2.15414 0 0.363281 1.79086 0.363281 4V27.7358C0.363281 29.945 2.15414 31.7358 4.36328 31.7358H28.4842C30.6934 31.7358 32.4842 29.945 32.4842 27.7358V4C32.4842 1.79086 30.6934 0 28.4842 0H4.36328ZM12.1673 25.1144C9.87685 25.0619 7.64508 24.3884 5.71582 23.1676C8.03132 23.4386 10.3614 22.7946 12.1985 21.376C11.2815 21.3566 10.3935 21.0549 9.65828 20.5132C8.92306 19.9714 8.37729 19.2164 8.09705 18.3536C8.7547 18.479 9.43253 18.4561 10.08 18.2866C9.07542 18.0874 8.17304 17.5472 7.52921 16.7597C6.88538 15.9723 6.54065 14.9871 6.55476 13.9749C7.16697 14.3061 7.84868 14.4924 8.54617 14.5191C7.61674 13.903 6.95885 12.9611 6.70557 11.884C6.45228 10.8069 6.62252 9.67491 7.18185 8.71709C8.28555 10.0585 9.66236 11.1557 11.223 11.9374C12.7836 12.7192 14.4931 13.168 16.2406 13.2549C16.0237 12.3253 16.1225 11.351 16.5217 10.4823C16.9209 9.61369 17.5984 8.899 18.4496 8.44853C19.3007 7.99806 20.2783 7.83686 21.2314 7.9898C22.1845 8.14275 23.0601 8.60132 23.7232 9.29478C24.7099 9.1047 25.6559 8.74782 26.5197 8.23986C26.1936 9.24669 25.5065 10.1012 24.5876 10.6427C25.4649 10.5451 26.322 10.3165 27.1298 9.96457C26.5429 10.8358 25.8024 11.5958 24.9435 12.2083C25.0474 14.4695 24.5203 16.7154 23.4198 18.7007C22.3193 20.6859 20.6876 22.3341 18.7031 23.4652C16.7187 24.5963 14.4577 25.1668 12.1673 25.1144Z" fill="#F2F2F2"></path>
</svg>