<svg width="33" height="32" viewBox="0 0 33 32" fill="none" xmlns="http://www.w3.org/2000/svg">
    <path fill-rule="evenodd" clip-rule="evenodd" d="M4.18164 0C1.9725 0 0.181641 1.79086 0.181641 4V27.7358C0.181641 29.945 1.9725 31.7358 4.18164 31.7358H28.3026C30.5117 31.7358 32.3026 29.945 32.3026 27.7358V4C32.3026 1.79086 30.5117 0 28.3026 0H4.18164ZM25.8084 9.06866C26.1411 9.39836 26.3804 9.80859 26.5023 10.2583C26.9481 11.9196 26.9481 15.3872 26.9481 15.3872C26.9481 15.3872 26.9481 18.8436 26.5023 20.5161C26.3804 20.9658 26.1411 21.376 25.8084 21.7057C25.4757 22.0354 25.0612 22.2731 24.6064 22.3948C22.9361 22.8408 16.2439 22.8408 16.2439 22.8408C16.2439 22.8408 9.56869 22.8408 7.87589 22.3948C7.42107 22.2731 7.00657 22.0354 6.67385 21.7057C6.34114 21.376 6.10186 20.9658 5.97995 20.5161C5.53418 18.8548 5.53418 15.3872 5.53418 15.3872C5.53418 15.3872 5.53418 11.9308 5.97995 10.2583C6.10186 9.80859 6.34114 9.39836 6.67385 9.06866C7.00657 8.73896 7.42107 8.50135 7.87589 8.37958C9.54612 7.93359 16.2439 7.93359 16.2439 7.93359C16.2439 7.93359 22.9136 7.93359 24.6064 8.37958C25.0612 8.50135 25.4757 8.73896 25.8084 9.06866Z" fill="#F2F2F2"></path>
    <path d="M14.0469 18.5308V12.2422L19.6445 15.3865L14.0469 18.5308Z" fill="#F2F2F2"></path>
</svg>